<?xml version="1.0" encoding="utf-8"?>
<!-- Generator: Adobe Illustrator 17.0.0, SVG Export Plug-In . SVG Version: 6.00 Build 0)  -->
<!DOCTYPE svg PUBLIC "-//W3C//DTD SVG 1.1//EN" "http://www.w3.org/Graphics/SVG/1.1/DTD/svg11.dtd">
<svg version="1.1" id="Capa_1" xmlns="http://www.w3.org/2000/svg" xmlns:xlink="http://www.w3.org/1999/xlink" x="0px" y="0px"
	 width="106.609px" height="95.995px" viewBox="0 0 106.609 95.995" enable-background="new 0 0 106.609 95.995"
	 xml:space="preserve">
<g>
	<path fill="#7A7A7A" d="M59.906,22.911c0-3.647,2.955-6.602,6.602-6.602s6.602,2.955,6.602,6.602s-2.955,6.602-6.602,6.602
		C62.861,29.513,59.906,26.558,59.906,22.911z M81.032,42.716h-9.221l-7.133-9.744c-0.098-0.135-0.238-0.214-0.354-0.325
		c-0.121-0.203-0.264-0.38-0.457-0.494l-5.281-2.641c-0.108-0.074-0.248-0.103-0.401-0.111l-10.346-4.914
		c-0.893-0.423-1.936-0.317-2.72,0.272l-10.563,7.922c-1.167,0.874-1.402,2.53-0.528,3.697c0.518,0.692,1.312,1.056,2.115,1.056
		c0.549,0,1.106-0.172,1.582-0.528l9.287-6.964l7.014,3.33l-8.379,13.404c-1.32,2.113-0.792,5.281,1.584,6.602l11.888,8.228
		l0.214,0.214L52.262,75.86c-0.655,1.305-0.124,2.892,1.178,3.546c0.38,0.19,0.79,0.28,1.183,0.28c0.969,0,1.901-0.533,2.366-1.46
		l7.922-15.844c0.507-1.017,0.309-2.245-0.496-3.047l-8.236-8.236l6.795-11.516l5.366,7.333c0.496,0.681,1.291,1.083,2.131,1.083
		h10.563c1.46,0,2.641-1.183,2.641-2.641C83.673,43.899,82.492,42.716,81.032,42.716z M43.006,52.223l-3.169,6.338h-14.26
		c-1.458,0-2.641,1.18-2.641,2.641c0,1.46,1.183,2.641,2.641,2.641h15.844c0.676,0,1.341-0.214,1.854-0.763
		c0.011-0.013,0.021-0.026,0.034-0.042c0.077-0.082,0.158-0.156,0.224-0.254l5.281-5.281l-3.169-2.115
		C44.59,54.599,43.534,53.543,43.006,52.223z"/>
</g>
</svg>
