<?xml version="1.0" encoding="utf-8"?>
<!-- Generator: Adobe Illustrator 17.0.0, SVG Export Plug-In . SVG Version: 6.00 Build 0)  -->
<!DOCTYPE svg PUBLIC "-//W3C//DTD SVG 1.1//EN" "http://www.w3.org/Graphics/SVG/1.1/DTD/svg11.dtd">
<svg version="1.1" id="Capa_1" xmlns="http://www.w3.org/2000/svg" xmlns:xlink="http://www.w3.org/1999/xlink" x="0px" y="0px"
	 width="106.609px" height="95.995px" viewBox="0 0 106.609 95.995" enable-background="new 0 0 106.609 95.995"
	 xml:space="preserve">
<g>
	<path fill="#7A7A7A" d="M16.502,70.705c1.789,7.804,9.593,12.692,17.397,10.903c7.799-1.788,12.692-9.588,10.902-17.392
		c-1.789-7.804-9.595-12.693-17.391-10.906C19.606,55.1,14.712,62.902,16.502,70.705z M20.547,69.778
		c-1.278-5.573,2.217-11.145,7.79-12.423c5.568-1.277,11.143,2.216,12.421,7.789c1.278,5.571-2.219,11.144-7.787,12.421
		C27.398,78.842,21.825,75.349,20.547,69.778z"/>
	<path fill="#7A7A7A" d="M47.513,34.301l5.576,5.482c0.302,0.746,1.005,1.251,1.81,1.293l3.789-0.919l1.607,3.485l4.363,4.519
		c-2.686,3.346-3.884,7.835-2.852,12.333c1.789,7.801,9.593,12.692,17.394,10.903c7.805-1.79,12.697-9.594,10.909-17.393
		c-1.789-7.802-9.594-12.695-17.397-10.906c-1.86,0.427-3.546,1.201-5.02,2.226l-3.923-4.06l-0.973-2.108l4.868-1.184
		c0,0,1.551-2.978-1.48-3.087l-9.747,2.121l-5.472-8.581c-0.334-0.814-1.15-1.318-2.091-1.572c-1.019-0.241-6.027-2.473-7.8-1.112
		c-1.012,0.775-4.55,6.317-7.427,10.959L46.33,33.79l-0.004-0.016L47.513,34.301z M67.574,51.174l7.852,8.138l2.985-2.88
		l-7.789-8.069c0.912-0.551,1.921-0.972,3.015-1.222c5.571-1.278,11.147,2.217,12.425,7.79c1.277,5.57-2.219,11.144-7.79,12.422
		c-5.571,1.278-11.144-2.217-12.421-7.787C65.156,56.536,65.88,53.512,67.574,51.174z"/>
	<path fill="#7A7A7A" d="M48.442,59.89l0.07,12.906l4.905-0.843l1.26-13.053c0.062-0.592-0.137-1.177-0.542-1.61L40.501,43.91
		l5.406-7.406l-14.108,3.235l-0.005-0.022c-1.262,2.068-2.13,3.528-2.13,3.528c-0.208,0.7-0.028,1.455,0.468,1.992
		c0.493,0.534,5.315,3.706,5.315,3.706L48.442,59.89z"/>
	<circle fill="#7A7A7A" cx="49.518" cy="19.575" r="5.556"/>
	<path fill="#7A7A7A" d="M37.139,27.576c0.784-1.942,0.383-4.017-1.082-4.936l-2.877-1.808c-1.466-0.917-3.509-0.374-4.911,1.183
		L37.139,27.576z"/>
	<path fill="#7A7A7A" d="M36.371,28.98l-9.029-5.659l-4.959,7.909c-1.361,2.162-1.08,4.778,0.619,5.842l2.879,1.809
		c1.699,1.062,4.173,0.172,5.529-1.991L36.371,28.98z"/>
</g>
</svg>
