<?xml version="1.0" encoding="utf-8"?>
<!-- Generator: Adobe Illustrator 17.0.0, SVG Export Plug-In . SVG Version: 6.00 Build 0)  -->
<!DOCTYPE svg PUBLIC "-//W3C//DTD SVG 1.1//EN" "http://www.w3.org/Graphics/SVG/1.1/DTD/svg11.dtd">
<svg version="1.1" id="Capa_1" xmlns="http://www.w3.org/2000/svg" xmlns:xlink="http://www.w3.org/1999/xlink" x="0px" y="0px"
	 width="106.609px" height="95.995px" viewBox="0 0 106.609 95.995" enable-background="new 0 0 106.609 95.995"
	 xml:space="preserve">
<g>
	<circle fill="#7A7A7A" cx="56.694" cy="20.275" r="6.204"/>
	<path fill="#7A7A7A" d="M48.113,31.042c0.23-1.574,1.452-2.521,2.343-2.273l6.473,1.805c0.889,0.254,1.195,2.32,0.944,3.217
		l-5.333,21.896c-0.262,0.9-0.798,1.344-1.69,1.088l-4.373-0.947c-3.523-2.9-3.502-5.424-2.78-8.908L48.113,31.042z"/>
	<path fill="#7A7A7A" d="M42.561,56.202l-1.109,7.755c0,0-2.853,6.776-4.815,10.757c-1.483,3.015-2.181,5.189-1.161,5.733
		c1.564,0.832,3.667-1.033,5.869-4.467c3.693-5.759,5.594-8.638,6.306-10.038l1.117-3.656
		C48.767,62.288,43.283,58.658,42.561,56.202z"/>
	<path fill="#7A7A7A" d="M62.16,59.411l-8.638-8.578c-1.363-1.373-3.397-0.727-4.776,0.638c-1.376,1.355-4.069,2.636-2.712,4.017
		l10.987,9.25l-1.216,11.853c-0.089,2.924,0.084,4.619,1.941,4.812c1.734,0.18,2.498-3.426,2.678-4.339c0,0,2.22-11.353,2.49-12.954
		C63.183,62.508,63.345,60.622,62.16,59.411z"/>
	<path fill="#7A7A7A" d="M72.606,33.977l-6.512,3.063l-8.204-5.989c-1.302-0.944-3.131-0.651-4.077,0.659
		c-0.944,1.305-0.651,3.128,0.659,4.077l8.848,6.408c0.832,0.599,2.111,0.913,3.047,0.507c0,0,6.075-3.69,7.705-4.752
		c1.708-1.119,3.494-2.589,2.835-3.824C75.969,32.353,74.264,33.177,72.606,33.977z"/>
	<g>
		<path fill="#7A7A7A" d="M72.386,81.924c-0.825,0-1.493-0.669-1.493-1.493V30.739c0-0.825,0.669-1.493,1.493-1.493
			c0.825,0,1.493,0.669,1.493,1.493v49.691C73.88,81.255,73.211,81.924,72.386,81.924z"/>
	</g>
	<path fill="#7A7A7A" d="M45.064,30.786c0,0-3.881,12.046-4.47,13.961s-2.642,3.243-5.542,2.359c-2.9-0.887-5.911-2.103-5.44-5.492
		c0.515-3.693,4.004-8.597,7.03-11.751C39.668,26.711,46.578,25.616,45.064,30.786z"/>
</g>
</svg>
